<svg version="1.2" xmlns="http://www.w3.org/2000/svg" viewBox="0 0 112 104" width="112" height="104">
	<title>FA_X Connect-xd</title>
	<defs>
		<clipPath clipPathUnits="userSpaceOnUse" id="cp1">
			<path d="m-743-40h1920v1080h-1920z"/>
		</clipPath>
		<clipPath clipPathUnits="userSpaceOnUse" id="cp2">
			<path d="m0.48 1.77h111v102.06h-111z"/>
		</clipPath>
		<clipPath clipPathUnits="userSpaceOnUse" id="cp3">
			<path d="m29.13 6.29c-6.04 6.03-6.04 15.81 0 21.85l7.47 7.47 4.95 4.95 2.46 2.46q0.47 0.57 1 1.1c3.51 3.51 8.29 4.98 12.86 4.41 3.32-0.4 6.53-1.87 9.08-4.42q0.46-0.46 0.87-0.95l0.71-0.71-4.95-4.95-0.91 0.91-0.19 0.22q-0.24 0.28-0.48 0.53c-1.35 1.35-3.07 2.19-4.96 2.42h-0.04q-0.53 0.07-1.07 0.07c-2.25 0-4.37-0.88-5.97-2.48q-0.28-0.28-0.55-0.6l-0.21-0.26-2.7-2.7-4.95-4.95-7.47-7.47c-1.6-1.6-2.48-3.72-2.48-5.98 0-2.25 0.88-4.38 2.48-5.97 1.59-1.6 3.71-2.48 5.97-2.48 2.26 0 4.38 0.88 5.97 2.48l9.97 9.96 9.95-9.95c1.59-1.59 3.71-2.47 5.97-2.47 2.26 0 4.38 0.88 5.97 2.47 3.3 3.29 3.3 8.65 0 11.95l-5.59 5.59 4.95 4.95 5.59-5.59c6.04-6.03 6.04-15.82 0-21.85-6.03-6.03-15.81-6.03-21.84 0l-5 5-5.02-5.01c-3.01-3.02-6.97-4.52-10.92-4.52-3.95 0-7.91 1.5-10.92 4.52z"/>
		</clipPath>
	</defs>
	<style>
		tspan { white-space:pre } 
		.s0 { fill: #295d30 } 
		.s1 { fill: #cf0000 } 
	</style>
	<g id="Web 1920 – 1" clip-path="url(#cp1)">
		<g id="Group 267">
			<g id="Group 21">
				<g id="Group 20" clip-path="url(#cp2)">
					<path id="Path 7" class="s0" d="m29.1 64.9c6.1 6.1 15.8 6.1 21.9 0l5-5 5 5c6 6.1 15.8 6.1 21.8 0 6.1-6 6.1-15.8 0-21.8l-7.4-7.5-5-4.9-2.5-2.5q-0.4-0.6-1-1.1c-3.5-3.5-8.2-5-12.8-4.4-3.3 0.4-6.5 1.9-9.1 4.4q-0.4 0.5-0.9 1l-0.7 0.7 5 4.9 0.9-0.9 0.2-0.2q0.2-0.3 0.5-0.5c1.3-1.4 3-2.2 4.9-2.4h0.1q0.5-0.1 1-0.1c2.3 0 4.4 0.9 6 2.5q0.3 0.2 0.5 0.6l0.3 0.2 2.7 2.7 4.9 5 7.5 7.4c1.6 1.6 2.5 3.8 2.5 6 0 2.3-0.9 4.4-2.5 6-1.6 1.6-3.7 2.5-6 2.5-2.2 0-4.4-0.9-6-2.5l-9.9-10-10 10c-1.6 1.6-3.7 2.5-6 2.5-2.2 0-4.3-0.9-5.9-2.5-3.3-3.3-3.3-8.7 0-12l5.6-5.6-5-4.9-5.6 5.6c-6 6-6 15.8 0 21.8z"/>
				</g>
			</g>
			<g id="Group 23">
				<g id="Group 22" clip-path="url(#cp3)">
					<path id="Rectangle 208" class="s1" d="m23.1 0.3h65.8v48.8h-65.8z"/>
				</g>
			</g>
			<path id="Path 9" class="s0" d="m58 103.8c0 0 0.7-22.3 17-27.6 16.2-5.3 21.2-6.4 23.6-10.2 0 0 2.9 10-12.8 12.9 0 0-1.5 2.1 2.8 1.3 4.4-0.8 7.4-2.5 10.2-6.6 2.8-4.2 6.3-13.3 6.3-13.3 0 0 2-8.1 6.4-8.1 0 0 0 10-4.2 20.4-4 10-9.2 16.3-19.8 19.1-10.6 2.9-24.8 4.6-29.5 12.1z"/>
			<path id="Path 10" class="s0" d="m54 103.8c0 0-0.8-22.3-17-27.6-16.3-5.3-21.2-6.4-23.7-10.2 0 0-2.8 10 12.9 12.9 0 0 1.5 2.1-2.8 1.3-4.4-0.8-7.4-2.5-10.3-6.6-2.8-4.2-6.2-13.3-6.2-13.3 0 0-2.1-8.1-6.4-8.1 0 0-0.1 10 4.1 20.4 4.1 10 9.3 16.3 19.9 19.1 10.6 2.9 24.8 4.6 29.5 12.1z"/>
		</g>
	</g>
</svg>